<svg width="558" height="209" viewBox="0 0 558 209" fill="none" xmlns="http://www.w3.org/2000/svg">
<path d="M3.5 50C3.5 70.9 18.8 85.6 38.9 85.6C54.4 85.6 67 77.4 71.7 63H55.6C52.3 69.8 46.3 73.1 38.8 73.1C26.6 73.1 17.9 64.1 17.9 50C17.9 35.8 26.6 26.9 38.8 26.9C46.3 26.9 52.3 30.2 55.6 36.9H71.7C67 22.6 54.4 14.3 38.9 14.3C18.8 14.3 3.5 29.1 3.5 50ZM97.6578 57.4C97.6578 46.7 102.658 43.5 110.958 43.5H114.658V28.8C106.958 28.8 101.158 32.5 97.6578 38.2V29.6H83.6578V85H97.6578V57.4ZM147.888 40.2C155.088 40.2 160.888 44.8 161.088 52.1H134.788C135.888 44.5 141.188 40.2 147.888 40.2ZM174.188 67.6H159.088C157.288 71.3 153.988 74.3 147.988 74.3C140.988 74.3 135.388 69.7 134.688 61.5H175.188C175.488 59.7 175.588 57.9 175.588 56.1C175.588 39.6 164.288 28.7 148.288 28.7C131.887 28.7 120.487 39.8 120.487 57.3C120.487 74.7 132.188 85.9 148.288 85.9C161.988 85.9 171.188 77.8 174.188 67.6ZM182.206 57.1C182.206 74.4 193.406 85.9 207.406 85.9C216.206 85.9 222.506 81.7 225.806 76.9V85H239.906V29.6H225.806V37.5C222.506 32.9 216.406 28.7 207.506 28.7C193.406 28.7 182.206 39.8 182.206 57.1ZM225.806 57.3C225.806 67.8 218.806 73.6 211.106 73.6C203.606 73.6 196.506 67.6 196.506 57.1C196.506 46.6 203.606 41 211.106 41C218.806 41 225.806 46.8 225.806 57.3ZM255.78 67.8C255.78 80.5 262.88 85 273.48 85H282.28V73.2H275.78C271.38 73.2 269.88 71.6 269.88 67.9V41.1H282.28V29.6H269.88V15.9H255.78V29.6H249.18V41.1H255.78V67.8ZM292.349 85H306.349V29.6H292.349V85ZM299.449 23C304.349 23 308.049 19.4 308.049 14.8C308.049 10.2 304.349 6.6 299.449 6.6C294.449 6.6 290.849 10.2 290.849 14.8C290.849 19.4 294.449 23 299.449 23ZM314.281 29.6L334.681 85H351.681L372.181 29.6H357.281L343.281 72.1L329.281 29.6H314.281ZM403.845 40.2C411.045 40.2 416.845 44.8 417.045 52.1H390.745C391.845 44.5 397.145 40.2 403.845 40.2ZM430.145 67.6H415.045C413.245 71.3 409.945 74.3 403.945 74.3C396.945 74.3 391.345 69.7 390.645 61.5H431.145C431.445 59.7 431.545 57.9 431.545 56.1C431.545 39.6 420.245 28.7 404.245 28.7C387.845 28.7 376.445 39.8 376.445 57.3C376.445 74.7 388.145 85.9 404.245 85.9C417.945 85.9 427.145 77.8 430.145 67.6Z" fill="black"/>
<path d="M100.3 111.2H75.9V181H100.3C122.6 181 137.1 167.3 137.1 146.2C137.1 125 122.6 111.2 100.3 111.2ZM89.9 169.1V123H99.8C114.5 123 122.8 131.7 122.8 146.2C122.8 160.7 114.5 169.1 99.8 169.1H89.9ZM171.38 136.2C178.58 136.2 184.38 140.8 184.58 148.1H158.28C159.38 140.5 164.68 136.2 171.38 136.2ZM197.68 163.6H182.58C180.78 167.3 177.48 170.3 171.48 170.3C164.48 170.3 158.88 165.7 158.18 157.5H198.68C198.98 155.7 199.08 153.9 199.08 152.1C199.08 135.6 187.78 124.7 171.78 124.7C155.38 124.7 143.98 135.8 143.98 153.3C143.98 170.7 155.68 181.9 171.78 181.9C185.48 181.9 194.68 173.8 197.68 163.6ZM252.298 165.2C251.898 144.9 221.198 151.2 221.198 141.1C221.198 137.9 223.898 135.8 229.098 135.8C234.598 135.8 237.998 138.7 238.398 143H251.798C250.998 132 242.898 124.7 229.498 124.7C215.798 124.7 207.598 132.1 207.598 141.3C207.598 161.6 238.898 155.3 238.898 165.2C238.898 168.4 235.898 170.9 230.398 170.9C224.798 170.9 220.898 167.7 220.398 163.5H206.298C206.898 173.8 216.598 181.9 230.498 181.9C243.998 181.9 252.298 174.7 252.298 165.2ZM263.791 181H277.791V125.6H263.791V181ZM270.891 119C275.791 119 279.491 115.4 279.491 110.8C279.491 106.2 275.791 102.6 270.891 102.6C265.891 102.6 262.291 106.2 262.291 110.8C262.291 115.4 265.891 119 270.891 119ZM288.023 153.1C288.023 170.4 299.223 181.9 313.323 181.9C322.023 181.9 328.323 177.6 331.623 172.8V181.4C331.623 191.7 325.623 196.1 317.923 196.1C310.923 196.1 305.723 192.8 304.323 187.8H290.423C291.823 200.5 302.723 208.3 318.323 208.3C336.523 208.3 345.723 196.4 345.723 181.4V125.6H331.623V133.5C328.323 128.7 322.023 124.7 313.323 124.7C299.223 124.7 288.023 135.8 288.023 153.1ZM331.623 153.3C331.623 163.8 324.623 169.6 316.923 169.6C309.423 169.6 302.323 163.6 302.323 153.1C302.323 142.6 309.423 137 316.923 137C324.623 137 331.623 142.8 331.623 153.3ZM398.196 181H412.196V148.5C412.196 133.2 402.996 124.8 390.096 124.8C382.996 124.8 376.996 127.8 373.396 132.5V125.6H359.396V181H373.396V150.4C373.396 141.5 378.296 136.7 385.896 136.7C393.296 136.7 398.196 141.5 398.196 150.4V181ZM449.309 136.2C456.509 136.2 462.309 140.8 462.509 148.1H436.209C437.309 140.5 442.609 136.2 449.309 136.2ZM475.609 163.6H460.509C458.709 167.3 455.409 170.3 449.409 170.3C442.409 170.3 436.809 165.7 436.109 157.5H476.609C476.909 155.7 477.009 153.9 477.009 152.1C477.009 135.6 465.709 124.7 449.709 124.7C433.309 124.7 421.909 135.8 421.909 153.3C421.909 170.7 433.609 181.9 449.709 181.9C463.409 181.9 472.609 173.8 475.609 163.6ZM501.228 153.4C501.228 142.7 506.228 139.5 514.528 139.5H518.228V124.8C510.528 124.8 504.728 128.5 501.228 134.2V125.6H487.228V181H501.228V153.4Z" fill="black"/>
<circle cx="548" cy="163" r="10" fill="#FD5956"/>
</svg>
